<svg version="1.0" xmlns="http://www.w3.org/2000/svg" width="990.667" height="990.667" viewBox="0 0 743 743"><path d="M426.5 231c-11.4 1.6-25.8 7.5-45.4 18.3-4.6 2.6-9.2 4.7-10.4 4.7-1.1 0-6.7-2.6-12.6-5.8-12.7-7-18-9.5-28.6-13.6-7.7-2.9-8.6-3.1-23.5-3.1-14.4 0-16.1.2-23.5 2.8-13.1 4.6-22 10.2-32 20.2-16.6 16.6-24.8 35.2-26.2 59.5-1.7 30.3 9.6 77.3 29.9 124.6 7.2 16.9 21.1 43 22.7 42.7.5-.2.8.3.6 1-.6 1.5 8.5 13.8 14.9 19.9 6.2 6 11.9 8.8 18 8.8 10.7 0 17-7.1 20.1-22.9 1-4.7 2.8-13.6 4.1-19.6 1.3-6.1 3.3-18.4 4.5-27.5 1.1-9.1 2.5-18.5 3.1-21 1.8-7.7 8.2-19.3 20.5-37.6 4.6-6.8 4.3-10.5-.7-11.5-3.4-.7-3.8-.5-13.6 9.4-11.2 11.2-16.5 18.5-21.9 29.9-3.5 7.2-4.4 11.1-9.6 38.8-3.2 17.2-6.6 34.6-7.3 37.5-.6 2.3-.9 2.5-2.3 1.3-3.2-2.6-13.3-17-19-27.1-25.4-45.2-45.2-112.5-43-146.2 1.2-18 7.7-32.6 20.3-45.2 6.2-6.4 9.8-9 15.5-11.7 8.4-4 22.8-6.9 29.3-6 13.7 2 26.9 7.8 39.6 17.4 23.1 17.5 38.3 22.7 63.4 21.8 14.4-.6 17.4-1.4 19.9-5.2 1.6-2.4 1.6-2.6-.9-4.9-2.1-2-4-2.5-10.9-3.1-9.1-.7-24.8-3.6-31-5.9l-3.9-1.4 8.9-4.9c21-11.4 32.7-14.9 45.4-13.4 18.1 2.1 33.8 11.9 43.5 27.3 8.1 12.7 10.6 21.1 11.3 37.2.6 14.7-.8 26.5-5.8 47.5-10.1 42.8-32.2 93.7-51.2 117.7-2.7 3.5-5.3 6.3-5.7 6.3-.5 0-1.3-2.4-1.9-5.3-.6-2.8-2-9.7-3.1-15.2-2.1-10.3-3.4-16.8-7-36.4-2.4-13.1-4.9-20.1-11.1-30.3-5.1-8.3-14.6-19.1-16.2-18.1-.5.3-.7.1-.4-.4.4-.6-2-3.5-5.2-6.6-5.2-5-6.1-5.5-8.7-4.8-2.4.6-3 1.4-3.2 4.1-.3 2.6.6 4.7 4.1 9.9 8.4 12.4 15.7 25.2 17.7 31 1 3.2 3 14.3 4.4 24.7 3 22.8 8.8 51.6 11.7 58.4 2.3 5.4 7.4 10.6 11.5 11.6 1.4.4 4.9.4 7.9.2 4.6-.4 6.4-1.2 11.2-4.9 26.3-20.5 61-99 70.3-159.4 2.2-14.4 2.6-34.5.9-44.1-6.2-35-31.9-63.1-64-69.7-9.3-2-18.9-2.6-25.4-1.7zm18.2 10.5c4.9.5 11.7 2.4 11.1 3-.2.2-2.8-.3-5.8-1.1-7.3-1.9-23.5-1.8-29 .1-2.4.8-4.5 1.3-4.8 1-.8-.8 4.9-2.6 10.8-3.4 5.4-.8 7-.8 17.7.4zM323 242.9c2.4 1.1 2.4 1.1-.5.5-1.6-.4-8.6-1.1-15.5-1.5l-12.5-.7 13 .3c7.3.1 14.1.7 15.5 1.4zm-35.5 1.5c-13.2 4.4-19.6 8.2-29.7 17.6-7.7 7.2-16.1 22.2-20 35.6-3.1 10.9-3.1 33.4.1 50.9 4.6 25.5 15 60.5 23.1 78 .5 1.1 1.8 4.2 2.9 7 1.1 2.7 3.6 8.3 5.5 12.3 2 4 3.6 7.4 3.6 7.7 0 .2 1.4 2.7 3 5.6 1.7 2.8 2.9 5.3 2.7 5.6-.9.8-11-19-16.4-32.2-5.3-12.7-6.7-16.4-11.3-30-16.6-48.7-20.9-84.4-13.1-109.5 4.7-14.9 18.7-33.6 31.1-41.5 5.1-3.3 20.5-9.4 23.5-9.4 1.1 0-1.1 1.1-5 2.3zm45.3 2.1c2.4 1 4.1 1.9 3.9 2.2-.3.2-2.9-.8-5.8-2.2-5.9-2.7-5-2.8 1.9 0zm82.2-1.6c0 .5-1.2 1.2-2.7 1.6-3.6.8-25.1 11.7-32 16.1-2.9 1.9-5.9 4.6-6.5 6.2-.7 1.5-1.3 2.8-1.4 3-.2.3-12.7-7.9-13.4-8.8-.3-.4-3.3-2.6-6.7-4.9-3.5-2.4-6.3-4.5-6.3-4.7 0-.5 12.1 5.9 14.5 7.6 2.1 1.5 12.4 4.9 12.7 4.2.2-.4 2.6-1.8 5.3-3.2 2.8-1.4 8.1-4.2 11.9-6.4 5.3-3 22.4-11.1 24.4-11.5.1-.1.2.3.2.8zm51.4 3.5c9.2 4.8 22.5 16 22.6 19 0 .5-1.8-1.2-4.1-3.8-5.2-5.9-15.4-13.2-22.7-16.2-3.1-1.3-4.9-2.4-4-2.4.9 0 4.6 1.5 8.2 3.4zM342.5 251c3.9 2.6 2.5 2.6-1.7 0-1.8-1.1-2.8-2-2.3-2 .6 0 2.4.9 4 2zm155.3 29c7.3 13.6 8.7 20 8.7 39.5 0 9.3-.6 21-1.3 26-7.4 49.6-37.6 122.3-61.4 147.7-5.5 5.9-5.3 4.5.4-2.3 9.4-11.1 15.5-21 24.5-39.5 7.1-14.5 10.8-22.8 14-31.4 1.3-3.6 2.8-7.4 3.3-8.5 2.1-4.6 9.3-28.1 13-42.5 7.4-29.3 9-57.5 4.1-73.5-2.1-6.8-8.1-19.5-10.6-22.5-2.3-2.8-2.8-4.5-.7-2.5 1.1 1.1 3.8 5.4 6 9.5zM329.7 437.2c-.3.7-.5.2-.5-1.2s.2-1.9.5-1.3c.2.7.2 1.9 0 2.5zm83 4c-.3.7-.5.2-.5-1.2s.2-1.9.5-1.3c.2.7.2 1.9 0 2.5zm-84 4c-.3.7-.5.2-.5-1.2s.2-1.9.5-1.3c.2.7.2 1.9 0 2.5zm88.6 19.8c.9 3 1.9 7.7 2.2 10.5.8 5.9 3.1 15.9 4.6 19.7.6 1.4 2.5 3.3 4.2 4.2 2.1 1 2.6 1.6 1.4 1.6-2.6 0-6.4-4.2-7.6-8.6-.6-2.2-1.8-7.7-2.7-12.4-.9-4.7-2.5-11.9-3.5-16.1-1-4.2-2.1-10.3-2.4-13.5-.4-5.5-.4-5.4.9 1.6.8 4.1 2.1 10 2.9 13zm-91.7-2.2c-1.4 6.4-3 14.6-3.7 18.2-1.4 8.5-5 18.2-6.9 18.8-1.3.4-1.2.2.1-1.4 2.2-2.6 4.5-10.1 6.3-20.4.8-4.7 2.4-12.3 3.5-17 1.2-4.7 2.1-9.6 2.2-11 .1-1.8.3-2 .6-.7.3 1-.7 7.1-2.1 13.5zm-27.5 29.4c3 3.2 5.2 5.8 4.9 5.8-2.7 0-24-28-24-31.4 0-.6 3.1 3.6 6.8 9.4 3.8 5.8 9.3 13.1 12.3 16.2zM437 499c-3.3 2.3-5 3-5 2.3 0-.5 1-1.3 2.3-1.9 2.8-1.5 4.7-1.7 2.7-.4zm-124.1 1.6c.2.2-1.2.4-3.2.4s-3.8-.4-4.2-.9c-.5-.9 6.4-.4 7.4.5z"/></svg>