<svg version="1.0" xmlns="http://www.w3.org/2000/svg" width="682.667" height="682.667" viewBox="0 0 512 512"><path d="M241.5.6c-38.1 3.9-66.8 12.2-97.2 27.9C56.8 73.8 3.7 167 10 263.9c2.4 36.6 9.9 64.2 26.6 97.7l8.5 17.2-22.4 66.3C10.3 481.6.3 511.6.4 511.7c0 .1 31.3-9.8 69.4-21.9l69.3-22 6.7 3.5c15.5 8.1 40 16.9 59.2 21.2 19 4.3 33.8 5.8 57 5.8 24.4 0 39.5-1.9 62.6-7.8 42.6-10.9 82.6-33.9 114.4-65.7 39.3-39.3 63.1-87.8 71.2-144.8 2.1-15.5 1.6-51.5-1.1-68-4.1-25.9-11.2-48.1-22.7-71.6-14.8-30.4-35.1-56.8-60.2-78.5C389.4 30.2 345.3 10.1 296 2.5 285.9 1 250.1-.3 241.5.6zM286 41.4c47.8 6 90.4 26.8 124 60.5 57 57.1 76.3 137.7 51 213.4-21.8 65.1-76.3 117.1-142.5 135.7-53.7 15-110.6 8.6-159.4-18-5.2-2.8-10.4-5.8-11.5-6.6-1.1-.8-2.7-1.4-3.5-1.4-.8 0-18.4 5.4-39 11.9-20.7 6.5-38.6 12.2-39.7 12.5-1.9.6-.8-3.3 10.3-36.1 6.9-20.3 12.8-37.8 13-39 .4-1.6-1.3-5.1-5.8-12-36.2-55.9-43.5-126.1-19.4-187.9C91.8 101.8 159.4 49.9 237 41.1c12.2-1.4 36.7-1.2 49 .3z"/><path d="M167.3 138c-7.2 3.2-18.6 16.6-23.3 27.4-6.3 14-7.3 34.3-2.6 50 3.8 12.8 11.2 27.1 21.8 42.1 24.2 34.4 47.1 58 73.2 75.2 22.7 15.1 67.9 32.3 88.6 33.9 14.8 1.2 33.2-5 46.6-15.7 7.4-5.9 10.9-10.8 13.6-19.1 2.6-8.1 3.6-23.1 1.7-25.4-2.3-2.8-46-24-55.7-27-2.7-.9-5.1-1-6.6-.5-1.2.5-6.3 6-11.3 12.3-5 6.2-10.8 13-12.8 15.2-3.5 3.5-4.2 3.8-8.1 3.3-2.3-.2-9.9-3.2-16.8-6.5-25.3-12.2-44.4-28-61.4-50.9-7.3-9.7-12.2-18.4-12.2-21.4 0-2 2.3-5.5 8-12.4 9-10.9 12-16 12-20.5 0-3.3-18.2-48.2-22.7-55.8-1.3-2.4-3.6-4.7-4.9-5.3-1.4-.5-7.1-.9-12.7-.9-7.9 0-11.2.5-14.4 2z"/></svg>